<svg preserveAspectRatio="none" width="100%" height="100%" overflow="visible" style="display: block;" viewBox="0 0 24 24" fill="none" xmlns="http://www.w3.org/2000/svg">
<g id="Nestle Logo">
<path id="Vector" fill-rule="evenodd" clip-rule="evenodd" d="M18.8982 9.21264C18.8982 9.0252 18.7317 8.85864 18.5234 8.85864H18.0021C17.7938 8.85864 17.627 9.0252 17.627 9.21264L17.6481 14.7986C17.6477 14.8452 17.6565 14.8915 17.6742 14.9346C17.6918 14.9777 17.7179 15.0169 17.7508 15.0499C17.7838 15.0828 17.823 15.1089 17.8661 15.1265C17.9092 15.1442 17.9555 15.1531 18.0021 15.1526H18.5234C18.7317 15.1526 18.8982 14.9861 18.8982 14.7986V9.21264Z" fill="var(--fill-0, #005695)"/>
<path id="Vector_2" fill-rule="evenodd" clip-rule="evenodd" d="M19.5664 9.38206V9.63142C19.5664 9.75622 19.6499 9.83974 19.7747 9.83974H23.4429C23.525 9.83762 23.6031 9.80407 23.6612 9.74601C23.7192 9.68795 23.7528 9.60982 23.7549 9.52774V9.09022C23.7549 8.92342 23.609 8.75686 23.4429 8.77822C23.4429 8.77822 19.8998 9.13222 19.7747 9.1531C19.6497 9.1531 19.5664 9.25726 19.5664 9.3823V9.38206Z" fill="var(--fill-0, #005695)"/>
<path id="Vector_3" fill-rule="evenodd" clip-rule="evenodd" d="M16.5853 15.1529C15.6683 15.1529 15.1055 14.4653 15.1055 13.6942V11.4639H14.8345C14.7095 11.4639 14.5842 11.3388 14.5842 11.2138V10.8384C14.5853 10.7725 14.6121 10.7096 14.6588 10.663C14.7056 10.6165 14.7686 10.59 14.8345 10.5891H15.1055V9.21293C15.1051 9.16629 15.114 9.12004 15.1316 9.07687C15.1493 9.03371 15.1754 8.99449 15.2083 8.96151C15.2413 8.92854 15.2805 8.90246 15.3237 8.8848C15.3669 8.86715 15.4131 8.85827 15.4597 8.85869H15.9808C16.1682 8.85869 16.3141 9.02525 16.3141 9.21293V10.5891H17.127C17.1601 10.5878 17.1931 10.5934 17.2239 10.6055C17.2547 10.6175 17.2827 10.6359 17.3061 10.6593C17.3295 10.6827 17.3478 10.7107 17.3599 10.7415C17.3719 10.7724 17.3775 10.8054 17.3761 10.8384V11.2131C17.3753 11.2791 17.3486 11.3422 17.3019 11.389C17.2552 11.4357 17.1921 11.4623 17.1261 11.4632H16.3141V13.5272C16.3141 13.9229 16.5645 14.215 17.002 14.215H17.0855C17.1214 14.2138 17.1572 14.22 17.1906 14.2333C17.224 14.2465 17.2543 14.2664 17.2797 14.2918C17.3051 14.3172 17.325 14.3475 17.3382 14.3809C17.3514 14.4143 17.3576 14.4501 17.3565 14.486V14.882C17.3552 14.9534 17.3263 15.0216 17.2757 15.0722C17.2252 15.1227 17.157 15.1517 17.0855 15.1529H16.5853Z" fill="var(--fill-0, #005695)"/>
<path id="Vector_4" fill-rule="evenodd" clip-rule="evenodd" d="M10.3326 12.7977C10.3326 11.61 9.62408 10.4217 8.0192 10.4217C6.53936 10.4217 5.72648 11.5886 5.72648 12.7977C5.72648 14.0899 6.60176 15.2364 8.03984 15.2364C9.01952 15.2364 9.97832 14.7362 10.1658 13.8818C10.1866 13.7776 10.1034 13.6108 9.9572 13.6108H9.24872C9.18968 13.6102 9.13153 13.6253 9.08025 13.6546C9.02896 13.6839 8.98638 13.7262 8.95688 13.7774C8.74832 14.0697 8.45672 14.2159 8.04008 14.2159C7.41488 14.2159 6.998 13.7359 6.95624 13.1947H9.93608C10.2073 13.1947 10.3323 13.0488 10.3323 12.7984L10.3326 12.7977ZM6.97688 12.2985C7.01864 11.7775 7.47704 11.3815 8.0192 11.3815C8.582 11.3815 9.0404 11.7775 9.10304 12.2985H6.97688Z" fill="var(--fill-0, #005695)"/>
<path id="Vector_5" fill-rule="evenodd" clip-rule="evenodd" d="M23.8795 12.7978C23.8795 11.61 23.171 10.4218 21.5659 10.4218C20.0861 10.4218 19.2734 11.5886 19.2734 12.7978C19.2734 14.0899 20.149 15.2364 21.587 15.2364C22.5665 15.2364 23.525 14.7362 23.7127 13.8818C23.7338 13.7777 23.6501 13.6109 23.5044 13.6109H22.7959C22.7368 13.6102 22.6786 13.6253 22.6273 13.6546C22.576 13.6839 22.5334 13.7263 22.5038 13.7774C22.2955 14.0698 22.0037 14.2159 21.5659 14.2159C20.9616 14.2159 20.5447 13.7359 20.503 13.1947H23.4835C23.7545 13.1947 23.8795 13.0488 23.8795 12.7985V12.7978ZM20.5241 12.2986C20.5656 11.7775 21.0235 11.3818 21.5659 11.3818C22.1287 11.3818 22.5874 11.7778 22.6291 12.2988L20.5241 12.2986Z" fill="var(--fill-0, #005695)"/>
<path id="Vector_6" fill-rule="evenodd" clip-rule="evenodd" d="M14.1042 8.92022H4.4749C4.42291 8.92022 4.37143 8.93047 4.32339 8.95037C4.27536 8.97027 4.23172 8.99945 4.19497 9.03622C4.15822 9.073 4.12907 9.11665 4.1092 9.1647C4.08932 9.21274 4.07911 9.26423 4.07914 9.31622L4.09978 13.1097C4.09978 13.1097 2.03578 9.35798 1.9321 9.1703C1.86836 9.06165 1.77713 8.97171 1.66759 8.90952C1.55805 8.84734 1.43406 8.8151 1.3081 8.81606H0.516101C0.463988 8.8159 0.412356 8.82604 0.364171 8.84589C0.315985 8.86573 0.272193 8.8949 0.23531 8.93172C0.198427 8.96854 0.169178 9.01227 0.149243 9.06042C0.129307 9.10857 0.119077 9.16019 0.119141 9.2123V14.7563C0.119141 14.9855 0.287141 15.1523 0.515141 15.1523H1.0153C1.2445 15.1523 1.4113 14.9855 1.4113 14.7563L1.39114 10.8798C1.39114 10.8798 3.4753 14.6521 3.5797 14.7981C3.68386 15.0064 3.8917 15.1523 4.18402 15.1523H4.91338C5.14258 15.1523 5.30938 14.9855 5.30938 14.7563V9.85862H14.1042C14.1756 9.85733 14.2438 9.82836 14.2943 9.77783C14.3449 9.72729 14.3738 9.65912 14.3751 9.58766V9.19142C14.374 9.11994 14.3451 9.05171 14.2946 9.00112C14.2441 8.95052 14.1759 8.92152 14.1044 8.92022H14.1042Z" fill="var(--fill-0, #005695)"/>
<path id="Vector_7" fill-rule="evenodd" clip-rule="evenodd" d="M12.5409 11.3393C12.9578 11.3393 13.2705 11.4852 13.3956 11.7559C13.4373 11.8812 13.5415 11.9021 13.6874 11.9021H14.2711C14.3546 11.9021 14.4794 11.8186 14.4794 11.6938C14.4794 11.0268 13.6665 10.4218 12.5412 10.4218C11.3752 10.4215 10.6029 10.9848 10.6029 11.8615C10.6029 12.5494 11.1448 12.9456 11.7909 13.1335C12.1029 13.1962 12.6244 13.321 12.8745 13.4045C13.1246 13.4671 13.3747 13.5504 13.3747 13.7796C13.3747 14.1547 12.9996 14.2596 12.5618 14.2596C12.1658 14.2596 11.7698 14.0916 11.6656 13.8012C11.6032 13.6332 11.478 13.6138 11.3114 13.6138H10.7272C10.6231 13.6138 10.498 13.7177 10.498 13.8427V13.9262C10.498 14.5723 11.3736 15.2393 12.5822 15.2393C13.416 15.2393 14.604 14.885 14.604 13.7592C14.604 13.0922 14.1662 12.6341 13.4368 12.4466C13.1656 12.384 12.4989 12.1963 12.353 12.1752C12.0818 12.0919 11.832 12.0086 11.832 11.8003C11.832 11.4461 12.144 11.3417 12.5404 11.3417L12.5409 11.3393Z" fill="var(--fill-0, #005695)"/>
</g>
</svg>
