<svg width="104" height="50" viewBox="0 0 104 50" fill="none" xmlns="http://www.w3.org/2000/svg">
<path d="M7.39232 31.0767H24.0834C28.1686 31.0767 31.4757 27.7756 31.4757 23.6978V7.37887C31.4757 3.30107 28.1686 0 24.0834 0H7.39232C3.30709 0 0 3.30107 0 7.37887V23.6978C0 27.7756 3.31487 31.0767 7.39232 31.0767Z" fill="white"/>
<path d="M0 16.4277C1.80528 12.2179 4.94118 4.93224 7.04216 0.0078125H10.0302C12.1701 5.00214 21.4377 26.5562 21.7334 27.2397C22.5816 29.1427 23.8578 30.4787 25.1261 31.0845H15.5161C16.4732 30.5952 17.4459 29.5 16.5277 27.2708C15.8896 25.7174 7.21335 5.56915 6.89431 4.83903C5.10459 8.95567 1.59519 17.2122 0 20.9327V16.4277Z" fill="#0A0319"/>
<path d="M43.3982 31.0767H60.0893C64.1745 31.0767 67.4816 27.7756 67.4816 23.6978V7.37887C67.4816 3.30107 64.1745 0 60.0893 0H43.3982C39.313 0 36.0059 3.30107 36.0059 7.37887V23.6978C36.0059 27.7756 39.313 31.0767 43.3982 31.0767Z" fill="white"/>
<path d="M43.3359 15.7986C47.2111 15.5034 53.0393 12.8471 53.0393 7.1925C53.0393 4.21765 51.5998 1.44475 48.1837 0.0078125H42.2076C45.8727 0.730165 47.7169 3.61958 47.7169 7.21581C47.7169 12.8237 44.6199 15.0995 39.5308 15.0995C38.9939 15.0995 36.6206 15.0995 36.0059 15.0995V16.3656C36.3716 16.3656 36.5583 16.3656 37.0097 16.3656C38.6749 16.3656 39.7098 16.42 40.698 17.6239C42.4955 19.8453 47.1955 26.8125 51.0239 31.0767H59.0232C53.2027 28.9175 48.6973 17.686 43.3359 15.7986Z" fill="#0A0319"/>
<path d="M79.4021 31.0767H96.0932C100.178 31.0767 103.485 27.7756 103.485 23.6978V7.37887C103.485 3.30107 100.178 0 96.0932 0H79.4021C75.3169 0 72.0098 3.30107 72.0098 7.37887V23.6978C72.0098 27.7756 75.3169 31.0767 79.4021 31.0767Z" fill="white"/>
<path d="M98.6416 27.2708V3.86813C98.6416 2.571 98.9451 1.56126 99.5365 0.854441C98.5093 0.310735 97.3344 0.0078125 96.0971 0.0078125H93.7705C91.5917 5.04875 83.3434 24.195 82.9388 25.1503C82.7053 24.5756 76.6047 10.3149 73.4066 3.08364C72.5351 4.29533 72.0215 5.77887 72.0215 7.38669V11.7596C74.994 18.6336 79.0403 27.9932 80.441 31.0845H82.2462C84.3316 26.5252 92.1597 8.10904 93.716 4.54388C93.8405 4.26426 93.9417 3.97687 93.9806 3.8992C93.9806 3.95357 93.965 4.33416 93.965 4.55164V27.2786C93.965 29.2592 93.1869 30.5097 91.7784 31.0845H96.1049C97.3577 31.0845 98.5405 30.7738 99.5676 30.2224C98.9607 29.5311 98.6416 28.5524 98.6416 27.2708Z" fill="#0A0319"/>
<path d="M4.66882 46.2236V38.7064H7.48242C8.09096 38.7064 8.59569 38.8102 8.99661 39.0178C9.39753 39.2254 9.69464 39.5046 9.88794 39.8554C10.0812 40.2063 10.1779 40.6072 10.1779 41.0582C10.1779 41.4734 10.0848 41.8565 9.89868 42.2073C9.71254 42.5581 9.41901 42.8444 9.01809 43.0664C8.61717 43.2812 8.10528 43.3886 7.48242 43.3886H6.11858V46.2236H4.66882ZM6.11858 42.218H7.39651C7.86187 42.218 8.19477 42.1142 8.39523 41.9066C8.60285 41.6918 8.70666 41.409 8.70666 41.0582C8.70666 40.6859 8.60285 40.3996 8.39523 40.1991C8.19477 39.9915 7.86187 39.8877 7.39651 39.8877H6.11858V42.218ZM11.2653 46.2236V38.7064H14.0682C14.6767 38.7064 15.1778 38.8102 15.5716 39.0178C15.9654 39.2254 16.2589 39.5046 16.4522 39.8554C16.6455 40.1991 16.7422 40.5821 16.7422 41.0045C16.7422 41.4054 16.6491 41.7813 16.4629 42.1321C16.2768 42.4757 15.9833 42.755 15.5823 42.9697C15.1886 43.1774 14.6803 43.2812 14.0574 43.2812H12.7151V46.2236H11.2653ZM15.1635 46.2236L13.6171 42.916H15.185L16.8173 46.2236H15.1635ZM12.7151 42.2288H13.9822C14.419 42.2288 14.7411 42.1214 14.9488 41.9066C15.1564 41.6918 15.2602 41.409 15.2602 41.0582C15.2602 40.7074 15.1564 40.4318 14.9488 40.2313C14.7483 40.0237 14.4261 39.9199 13.9822 39.9199H12.7151V42.2288ZM18.0401 46.2236V38.7064H22.98V39.8769H19.4898V41.8421H22.6578V42.9697H19.4898V45.0531H22.98V46.2236H18.0401ZM26.889 46.3525C26.3449 46.3525 25.8581 46.2594 25.4285 46.0733C25.0061 45.8871 24.6696 45.6151 24.4191 45.2571C24.1756 44.8992 24.0504 44.466 24.0432 43.9577H25.5789C25.586 44.1797 25.6433 44.3801 25.7507 44.5591C25.8581 44.7381 26.0048 44.8813 26.191 44.9887C26.3843 45.0889 26.6134 45.139 26.8783 45.139C27.1074 45.139 27.3043 45.1032 27.4689 45.0316C27.6407 44.9529 27.7732 44.8455 27.8663 44.7094C27.9593 44.5734 28.0059 44.4123 28.0059 44.2262C28.0059 44.0114 27.9522 43.8324 27.8448 43.6892C27.7445 43.5461 27.6014 43.4244 27.4152 43.3241C27.2362 43.2239 27.025 43.1344 26.7816 43.0556C26.5454 42.9697 26.2948 42.8802 26.0299 42.7872C25.4357 42.5939 24.9811 42.3361 24.6661 42.014C24.3582 41.6918 24.2043 41.2658 24.2043 40.736C24.2043 40.285 24.3117 39.8984 24.5264 39.5762C24.7484 39.2541 25.0527 39.0071 25.4393 38.8352C25.8259 38.6634 26.2662 38.5775 26.7601 38.5775C27.2685 38.5775 27.7123 38.667 28.0918 38.846C28.4784 39.0178 28.7826 39.2684 29.0046 39.5977C29.2337 39.927 29.3518 40.3136 29.359 40.7575H27.8126C27.8054 40.5929 27.7553 40.4389 27.6622 40.2957C27.5763 40.1454 27.4546 40.0273 27.2971 39.9414C27.1396 39.8483 26.9534 39.8018 26.7387 39.8018C26.5525 39.7946 26.3807 39.8232 26.2232 39.8877C26.0729 39.9521 25.9511 40.0487 25.8581 40.1776C25.7722 40.2993 25.7292 40.4532 25.7292 40.6394C25.7292 40.8184 25.7722 40.9687 25.8581 41.0904C25.9511 41.2121 26.0764 41.3195 26.2339 41.4126C26.3914 41.4985 26.5776 41.5808 26.7924 41.6596C27.0071 41.7312 27.2398 41.8064 27.4904 41.8851C27.8627 42.014 28.2063 42.1679 28.5213 42.3469C28.8363 42.5187 29.0869 42.7442 29.2731 43.0234C29.4592 43.3026 29.5523 43.6713 29.5523 44.1295C29.5523 44.5233 29.4485 44.8884 29.2408 45.2249C29.0332 45.5614 28.7325 45.8335 28.3388 46.0411C27.9522 46.2487 27.4689 46.3525 26.889 46.3525ZM32.4591 46.2236V39.8769H30.2576V38.7064H36.0888V39.8769H33.8981V46.2236H32.4591ZM37.1163 46.2236V38.7064H38.5661V46.2236H37.1163ZM43.3391 46.3525C42.6232 46.3525 42.0003 46.195 41.4706 45.88C40.9408 45.5578 40.5291 45.1104 40.2356 44.5376C39.942 43.9577 39.7953 43.2847 39.7953 42.5187C39.7953 41.7455 39.9456 41.0654 40.2463 40.4783C40.547 39.8841 40.9801 39.4187 41.5457 39.0822C42.1113 38.7458 42.7879 38.5775 43.5754 38.5775C44.456 38.5775 45.1862 38.7887 45.7661 39.2111C46.3532 39.6335 46.7326 40.2206 46.9045 40.9723H45.2829C45.1755 40.643 44.975 40.3852 44.6815 40.1991C44.3951 40.0058 44.0228 39.9091 43.5646 39.9091C43.0778 39.9091 42.6626 40.0165 42.3189 40.2313C41.9753 40.4461 41.714 40.7468 41.535 41.1334C41.356 41.52 41.2665 41.9818 41.2665 42.5187C41.2665 43.0628 41.356 43.5246 41.535 43.904C41.714 44.2835 41.9681 44.5734 42.2975 44.7739C42.6339 44.9672 43.0277 45.0638 43.4787 45.0638C44.1374 45.0638 44.635 44.8884 44.9714 44.5376C45.3151 44.1797 45.5191 43.7179 45.5836 43.1523H43.7365V42.0677H47.0441V46.2236H45.7017L45.5943 45.2679C45.4368 45.5041 45.2507 45.7046 45.0359 45.8692C44.8283 46.0268 44.5848 46.1449 44.3056 46.2236C44.0264 46.3095 43.7043 46.3525 43.3391 46.3525ZM48.4006 46.2236V38.7064H53.3405V39.8769H49.8504V41.8421H53.0183V42.9697H49.8504V45.0531H53.3405V46.2236H48.4006ZM58.7031 46.2236L56.7271 38.7064H58.2735L59.5837 44.5806L61.1301 38.7064H62.7302L64.2337 44.5806L65.5545 38.7064H67.1117L65.082 46.2236H63.3531L61.914 40.7468L60.4213 46.2236H58.7031ZM68.1166 46.2236V38.7064H73.0565V39.8769H69.5664V41.8421H72.7344V42.9697H69.5664V45.0531H73.0565V46.2236H68.1166ZM73.8728 46.2236L76.6219 38.7064H78.265L81.0034 46.2236H79.4677L77.4381 40.3602L75.3977 46.2236H73.8728ZM75.0863 44.5161L75.4729 43.3886H79.2959L79.6718 44.5161H75.0863ZM81.9912 46.2236V38.7064H83.441V45.096H86.7378V46.2236H81.9912ZM88.4819 46.2236V39.8769H86.2804V38.7064H92.1117V39.8769H89.9209V46.2236H88.4819ZM97.875 46.2236V38.7064H99.3248V46.2236H97.875ZM93.1392 46.2236V38.7064H94.5889V46.2236H93.1392ZM94.3849 42.9697V41.7992H98.122V42.9697H94.3849Z" fill="white"/>
</svg>
