<svg preserveAspectRatio="none" width="100%" height="100%" overflow="visible" style="display: block;" viewBox="0 0 24 24" fill="none" xmlns="http://www.w3.org/2000/svg">
<g id="Total Nigeria Logo">
<path id="Vector" fill-rule="evenodd" clip-rule="evenodd" d="M7.462 17.1279C7.89256 17.1306 8.296 17.1719 8.68 17.3118C8.88332 17.3832 9.07335 17.4879 9.24232 17.6216C9.47412 17.8069 9.64199 18.0602 9.72232 18.3459C9.81591 18.6717 9.81782 19.017 9.72784 19.3438C9.60448 19.7965 9.30808 20.101 8.89672 20.3038C8.62504 20.4354 8.33704 20.5069 8.04064 20.5424C7.67724 20.5876 7.30964 20.5876 6.94624 20.5424C6.60328 20.5014 6.26848 20.4162 5.9668 20.2434C5.4976 19.9746 5.23696 19.5714 5.18776 19.028C5.16663 18.8035 5.18706 18.577 5.248 18.3599C5.36608 17.9485 5.62648 17.6521 5.99704 17.4464C6.28864 17.2871 6.60328 17.2079 6.92704 17.1635C7.11352 17.1395 7.3 17.1334 7.462 17.1279ZM7.52776 19.7758C7.6848 19.7784 7.84152 19.7608 7.99408 19.7235C8.46328 19.6139 8.6992 19.3155 8.69368 18.8403C8.68816 18.4014 8.47432 18.1203 8.04904 18.0003C7.76368 17.9207 7.47568 17.9206 7.18504 17.9482C7.03077 17.9606 6.88009 18.0013 6.74056 18.0682C6.51016 18.1806 6.36208 18.3589 6.31 18.6114C6.295 18.6854 6.28697 18.7607 6.286 18.8362C6.26944 19.2807 6.49168 19.5824 6.9196 19.706C7.10464 19.7615 7.29664 19.7758 7.52776 19.7758Z" fill="var(--fill-0, #EB1C24)"/>
<path id="Vector_2" fill-rule="evenodd" clip-rule="evenodd" d="M3.27426 16.2203H5.5569C5.58152 16.2216 5.60619 16.2216 5.63082 16.2203C5.6721 16.2174 5.68842 16.234 5.68842 16.275C5.68578 16.5112 5.68842 16.7497 5.68842 16.9856C5.68842 17.024 5.67474 17.0377 5.63634 17.0351C5.61172 17.0336 5.58703 17.0336 5.56242 17.0351H3.95754C3.93283 17.0364 3.90808 17.0364 3.88338 17.0351C3.84762 17.0322 3.82842 17.0432 3.8313 17.0845C3.83394 17.1119 3.8313 17.1421 3.8313 17.1695V20.4095C3.8313 20.5494 3.84762 20.541 3.70242 20.5247C3.44706 20.4944 3.20298 20.4287 2.98362 20.294C2.75298 20.1544 2.59122 19.9621 2.53098 19.694C2.514 19.6092 2.50659 19.5228 2.5089 19.4363V17.1529C2.5089 17.0214 2.52258 17.0351 2.39658 17.0351H0.964496C0.938916 17.0336 0.913276 17.0336 0.887696 17.0351C0.849296 17.0377 0.835376 17.0214 0.838256 16.9856C0.840896 16.9446 0.838256 16.9062 0.838256 16.8656V16.3163C0.838256 16.2203 0.838256 16.2203 0.936896 16.2203H3.27426Z" fill="var(--fill-0, #EB1C24)"/>
<path id="Vector_3" fill-rule="evenodd" clip-rule="evenodd" d="M18.9356 20.4976C18.9175 20.5005 18.8992 20.5023 18.8809 20.5031C18.5653 20.5031 18.2499 20.5003 17.9317 20.5058C17.8686 20.5058 17.8465 20.4866 17.8357 20.4235C17.7973 20.2288 17.7286 20.045 17.6545 19.8611C17.6326 19.8091 17.605 19.7925 17.5503 19.7925C16.8068 19.7954 16.0634 19.7954 15.32 19.7925C15.265 19.7925 15.2348 19.8091 15.2156 19.8611C15.1418 20.0404 15.0813 20.2249 15.0346 20.4131C15.0106 20.5257 15.021 20.5039 14.9276 20.5039C14.6012 20.5065 14.2746 20.5039 13.9455 20.5039C13.9366 20.476 13.9375 20.4459 13.9482 20.4187C14.0278 20.021 14.187 19.6533 14.3845 19.3022C14.7327 18.6904 15.169 18.1444 15.6565 17.6397C15.7662 17.5245 15.8869 17.4237 15.9992 17.3133C16.2022 17.1103 16.6741 17.1295 16.8661 17.3078C17.1553 17.5767 17.4283 17.8625 17.6838 18.1636C18.0322 18.5807 18.345 19.0197 18.5958 19.5052C18.7525 19.8041 18.8661 20.1237 18.9332 20.4544C18.9358 20.4681 18.9332 20.4818 18.9358 20.4983M17.2378 19.0991C17.0129 18.7637 16.7576 18.4497 16.4751 18.161C16.4367 18.1226 16.4175 18.1444 16.3902 18.1691C16.1199 18.4378 15.8773 18.7327 15.6658 19.0497C15.6577 19.0636 15.6418 19.0773 15.6522 19.0991H17.2378Z" fill="var(--fill-0, #EB1C24)"/>
<path id="Vector_4" fill-rule="evenodd" clip-rule="evenodd" d="M12.0871 17.217H13.9498C13.9745 17.2184 13.9992 17.2184 14.0239 17.217C14.0786 17.2115 14.0897 17.2391 14.0897 17.289C14.087 17.4455 14.0897 17.6046 14.0897 17.7637C14.0897 17.8268 14.1199 17.9036 14.0734 17.9476C14.0321 17.986 13.9553 17.9586 13.8977 17.9612C13.5355 17.9639 13.1707 17.9612 12.8086 17.9612C12.696 17.9612 12.707 17.9531 12.707 18.0683V20.1668C12.707 20.3425 12.6631 20.4138 12.4932 20.4714C12.23 20.5624 11.9437 20.5614 11.681 20.4688C11.5193 20.4112 11.478 20.3425 11.478 20.1697V18.0817C11.478 17.9584 11.4917 17.9636 11.3657 17.9636H10.1695C10.0898 17.961 10.0898 17.961 10.0898 17.876V17.6286C10.0898 17.5134 10.0927 17.3982 10.0898 17.283C10.0898 17.235 10.1064 17.217 10.153 17.2199C10.1777 17.2212 10.2024 17.2212 10.2271 17.2199H12.0871V17.217Z" fill="var(--fill-0, #EB1C24)"/>
<path id="Vector_5" fill-rule="evenodd" clip-rule="evenodd" d="M22.081 20.5004C21.6886 20.5004 21.2991 20.5141 20.9069 20.4783C20.7037 20.462 20.5023 20.4281 20.305 20.3768C19.8303 20.2479 19.561 19.9297 19.4599 19.4578C19.4302 19.3134 19.4155 19.1663 19.416 19.0189V17.5018C19.416 17.3482 19.4599 17.2796 19.6054 17.2275C19.7808 17.1615 19.962 17.1507 20.1459 17.1699C20.2319 17.1774 20.3167 17.1958 20.3981 17.2246C20.545 17.2851 20.593 17.3499 20.593 17.51V18.974C20.593 19.081 20.593 19.19 20.6203 19.2951C20.6643 19.4734 20.7687 19.5941 20.9415 19.6551C21.077 19.7036 21.2199 19.728 21.3639 19.7271C21.918 19.73 22.4695 19.73 23.0237 19.73C23.1828 19.73 23.1607 19.7079 23.1636 19.8644V20.4241C23.1636 20.498 23.1607 20.498 23.0866 20.498C22.7494 20.5009 22.4146 20.5009 22.0827 20.5009" fill="var(--fill-0, #EB1C24)"/>
<path id="Vector_6" fill-rule="evenodd" clip-rule="evenodd" d="M13.7907 7.1456C13.5785 7.04208 13.3594 6.95315 13.135 6.87944C12.4505 6.64206 11.7451 6.46938 11.0283 6.36368C10.4493 6.27546 9.86291 6.24611 9.27801 6.27608C8.75673 6.30608 8.24601 6.39608 7.76097 6.59696C7.41249 6.73952 7.11297 6.94808 6.88305 7.25264C6.87201 7.26368 6.86649 7.27448 6.85569 7.28552C6.85281 7.28816 6.84177 7.28816 6.83649 7.29104C6.81993 7.26368 6.83913 7.2416 6.85017 7.21904C7.25073 6.33104 7.83777 5.5976 8.67177 5.0792C9.16281 4.77464 9.70041 4.57976 10.2601 4.43984C10.8884 4.2836 11.5275 4.23704 12.1722 4.27184C12.5201 4.29016 12.8659 4.33607 13.2066 4.40912C13.2421 4.41728 13.2805 4.43648 13.3218 4.41728L13.3189 4.41464C13.3134 4.442 13.3354 4.43384 13.3491 4.43648C13.5056 4.47752 13.6592 4.52144 13.8128 4.56536C14.5568 4.7876 15.2528 5.10848 15.8622 5.59976C15.8758 5.61056 15.8895 5.62376 15.9087 5.6216H15.9058C15.9058 5.62765 15.9081 5.63348 15.9122 5.63793C15.9163 5.64237 15.9219 5.64512 15.9279 5.6456C16.131 5.83208 16.334 6.02144 16.5094 6.23528C17.0289 6.85988 17.3592 7.61983 17.4615 8.42576C17.563 9.19376 17.4807 9.9428 17.1762 10.6578C17.0334 10.9952 16.8414 11.2998 16.5762 11.5549C16.513 11.6125 16.4581 11.6864 16.3647 11.703C16.3621 11.6672 16.3923 11.6564 16.4115 11.6372C16.4735 11.5732 16.5303 11.5043 16.5814 11.4313C16.8531 11.0528 16.9162 10.6249 16.8694 10.1749C16.8533 9.97843 16.8031 9.78629 16.7211 9.60704C16.5841 9.23336 16.3587 8.92064 16.0801 8.64344C16.058 8.61944 16.0388 8.594 16.017 8.57144C15.3721 7.94048 14.6096 7.50152 13.7919 7.14488" fill="var(--fill-0, #EB1C24)"/>
<path id="Vector_7" fill-rule="evenodd" clip-rule="evenodd" d="M14.218 12.7138C14.2564 12.7496 14.3 12.7304 14.3413 12.7278C14.8726 12.7089 15.3997 12.6261 15.9112 12.481C15.9222 12.4782 15.9332 12.481 15.9551 12.4782C15.9311 12.5262 15.8893 12.5468 15.8591 12.5742C15.4559 12.9282 15.0191 13.2354 14.5369 13.4742C13.9936 13.7401 13.4257 13.9184 12.825 13.987C12.779 13.9925 12.7339 14.0036 12.6906 14.0199C12.6666 13.9981 12.6356 14.0036 12.6083 14.0062C12.5204 14.0118 12.43 14.0254 12.3421 14.0254C12.142 14.0254 11.9416 14.0283 11.7421 14.0118C11.5609 13.9981 11.3771 13.9844 11.1988 13.957C10.8347 13.9051 10.4758 13.8215 10.1262 13.7072C10.0796 13.69 10.0304 13.6808 9.98076 13.6798C9.90396 13.6278 9.8106 13.6078 9.723 13.5728C8.92188 13.2574 8.20044 12.8211 7.60236 12.193C7.03824 11.6109 6.67157 10.8661 6.55428 10.064C6.51876 9.8336 6.49116 9.60056 6.49956 9.368C6.51324 8.9456 6.58716 8.53952 6.81492 8.17472C6.88068 8.06768 6.94932 7.96328 7.05372 7.88672C7.04268 7.90592 7.03452 7.92512 7.02348 7.94432C6.85548 8.19416 6.82044 8.47112 6.88068 8.75912C6.963 9.15704 7.16341 9.4916 7.44325 9.78248C7.62973 10.021 7.84644 10.2296 8.06868 10.4326C8.70175 11.0077 9.41981 11.4815 10.1975 11.8374C10.6503 12.0463 11.1191 12.2188 11.5993 12.3531C11.6377 12.3639 11.6735 12.3831 11.7119 12.3502C11.7229 12.4107 11.7776 12.4023 11.8134 12.4107C12.2366 12.5197 12.6664 12.6012 13.1 12.6548C13.3548 12.6886 13.6112 12.7087 13.868 12.715C13.9448 12.7179 14.019 12.715 14.0932 12.7316C14.1141 12.7382 14.1363 12.7402 14.1581 12.7373C14.1799 12.7345 14.2009 12.7269 14.2194 12.715" fill="var(--fill-0, #6F8EC7)"/>
<path id="Vector_8" fill-rule="evenodd" clip-rule="evenodd" d="M14.2189 12.7128C14.1783 12.7368 14.1299 12.7437 14.0843 12.732C14.0099 12.7198 13.9347 12.7143 13.8594 12.7157C13.6016 12.7128 13.3465 12.6828 13.0914 12.6552C12.6573 12.6042 12.2273 12.5226 11.8047 12.4111C11.7661 12.403 11.714 12.4111 11.7032 12.3509C11.7992 12.2163 11.906 12.0903 11.9883 11.9475C12.0515 11.8788 12.0954 11.7967 12.1448 11.7171C12.2932 11.4851 12.427 11.2442 12.5454 10.9956C12.6879 10.7431 12.8005 10.4743 12.9131 10.2082C13.2723 9.3478 13.5443 8.45357 13.725 7.53889C13.749 7.41001 13.7579 7.27489 13.797 7.14937C14.6147 7.50601 15.3771 7.94497 16.0165 8.57593C16.039 8.59938 16.0601 8.62414 16.0796 8.65009C16.0741 8.66929 16.0657 8.69113 16.0604 8.71033C16.0081 8.99017 15.9404 9.26233 15.8629 9.53329C15.7777 9.82681 15.6709 10.1122 15.5665 10.3973C15.5499 10.4328 15.5336 10.4693 15.5171 10.507C15.339 10.9398 15.1288 11.3586 14.8883 11.76C14.7923 11.9191 14.6907 12.0754 14.5919 12.2319C14.4656 12.3883 14.3423 12.5501 14.2189 12.7119" fill="var(--fill-0, #0B5AAA)"/>
<path id="Vector_9" fill-rule="evenodd" clip-rule="evenodd" d="M7.43332 9.78008C7.15636 9.48944 6.95332 9.15464 6.871 8.75696C6.81076 8.46896 6.847 8.1944 7.0138 7.94216C7.02536 7.92382 7.0354 7.90455 7.0438 7.88456C7.13428 7.76456 7.25788 7.68416 7.38412 7.60736C7.73236 7.39352 8.1166 7.2644 8.51428 7.17392C9.12502 7.0429 9.75105 6.99766 10.3743 7.03952C11.0258 7.07972 11.6702 7.19669 12.2943 7.388C12.3106 7.39352 12.3298 7.39352 12.3423 7.42088C12.2436 7.43744 12.1448 7.43456 12.0488 7.44488C11.6255 7.50042 11.2076 7.59056 10.7991 7.7144C10.0637 7.9256 9.35332 8.19728 8.68708 8.58416C8.38968 8.75049 8.11412 8.95317 7.86676 9.18752C7.69104 9.36017 7.54463 9.56032 7.43332 9.78008Z" fill="var(--fill-0, #FBCA1D)"/>
<path id="Vector_10" fill-rule="evenodd" clip-rule="evenodd" d="M15.9053 5.62743C15.8861 5.63295 15.8724 5.61927 15.8587 5.60535C15.2496 5.11431 14.5558 4.79343 13.8094 4.57119C13.6558 4.52463 13.4995 4.48335 13.3459 4.44231C13.3404 4.42863 13.3375 4.40943 13.3157 4.42023L13.3183 4.42311C13.3349 4.39023 13.3046 4.37919 13.291 4.36263C13.0055 4.05532 12.6228 3.85579 12.2074 3.79767C11.8234 3.74007 11.4502 3.78663 11.0794 3.88263C11.041 3.86607 11.0052 3.91287 10.9668 3.88263C11.233 3.68223 11.5375 3.56703 11.8584 3.50391C12.7858 3.32295 13.6718 3.44103 14.5003 3.90735C15.1642 4.28319 15.6197 4.84839 15.8966 5.55615C15.9022 5.57799 15.9187 5.60007 15.9048 5.62815" fill="var(--fill-0, #0B5AAA)"/>
<path id="Vector_11" fill-rule="evenodd" clip-rule="evenodd" d="M14.5898 12.2286C14.6885 12.0723 14.79 11.9166 14.886 11.7567C15.1269 11.3554 15.337 10.9362 15.5143 10.503L15.5638 10.3959C15.5966 10.3823 15.6295 10.3719 15.6624 10.3549C16.0574 10.1684 16.417 9.92962 16.7184 9.61426C16.7982 9.79412 16.8473 9.98604 16.8638 10.1821C16.9104 10.6319 16.8473 11.0571 16.5758 11.4385C16.5229 11.5101 16.4661 11.5787 16.4057 11.6442C16.3865 11.6634 16.3562 11.6773 16.3589 11.7102V11.7073C16.3426 11.7073 16.3349 11.7128 16.3349 11.7294C16.321 11.7294 16.3128 11.7349 16.3128 11.7512C16.3044 11.7491 16.2955 11.7499 16.2876 11.7534C16.2796 11.7568 16.2731 11.7628 16.2689 11.7704C16.2327 11.8086 16.1887 11.8385 16.14 11.8583C15.8081 12.0263 15.4514 12.1189 15.084 12.1791C14.9205 12.2052 14.7557 12.2217 14.5903 12.2286" fill="var(--fill-0, #FBCA1D)"/>
<path id="Vector_12" fill-rule="evenodd" clip-rule="evenodd" d="M9.97441 13.6792C10.024 13.6815 10.0729 13.6908 10.1199 13.7068C10.4695 13.8209 10.8283 13.9044 11.1924 13.9564C11.3736 13.9838 11.5546 13.9975 11.7358 14.0114C11.9359 14.0251 12.1363 14.0251 12.3358 14.0251C12.4236 14.0251 12.5141 14.0114 12.6019 14.0059C12.6293 14.003 12.6595 13.9975 12.6843 14.0195C12.1685 14.3157 11.6199 14.5216 11.0299 14.5955C10.2454 14.6971 9.49921 14.5874 8.81881 14.1595C8.39089 13.8907 8.06713 13.5311 7.88281 13.0538C7.88847 13.0452 7.89489 13.0372 7.90201 13.0298C8.45881 13.691 9.15841 13.8638 9.97321 13.6799" fill="var(--fill-0, #0B5AAA)"/>
<path id="Vector_13" fill-rule="evenodd" clip-rule="evenodd" d="M12.5392 10.9949C12.4266 11.2474 12.2841 11.4833 12.1386 11.7166C12.0892 11.796 12.0453 11.8783 11.9824 11.947C11.0001 11.6789 10.1034 11.2349 9.27733 10.6363C8.97458 10.4178 8.68511 10.1815 8.41045 9.92857C8.37757 9.89833 8.33629 9.87361 8.31445 9.82969L8.32261 9.82153C8.33701 9.82357 8.35092 9.8282 8.36365 9.83521C9.00565 10.1863 9.69421 10.4223 10.3938 10.6227C10.8793 10.7644 11.3745 10.8707 11.8753 10.9409C12.0953 10.9726 12.317 10.9906 12.5392 10.9949Z" fill="var(--fill-0, #FBC91B)"/>
<path id="Vector_14" fill-rule="evenodd" clip-rule="evenodd" d="M10.9655 3.88398C11.0039 3.91134 11.0394 3.86742 11.0778 3.88398C11.0312 3.91134 10.9791 3.91974 10.916 3.93606C10.9242 3.90054 10.94 3.88662 10.9655 3.88398Z" fill="var(--fill-0, #00ABD3)"/>
<path id="Vector_15" fill-rule="evenodd" clip-rule="evenodd" d="M7.9056 13.039C7.89843 13.0463 7.89199 13.0544 7.8864 13.063C7.8624 13.0411 7.85904 13.0109 7.85352 12.978C7.86689 12.9823 7.87882 12.9902 7.888 13.0008C7.89719 13.0115 7.90328 13.0244 7.9056 13.0383" fill="var(--fill-0, #00ABD3)"/>
<path id="Vector_16" fill-rule="evenodd" clip-rule="evenodd" d="M16.2676 11.7678C16.2714 11.76 16.278 11.7537 16.286 11.7502C16.2941 11.7466 16.3031 11.7461 16.3115 11.7487C16.3103 11.7531 16.3081 11.7572 16.3051 11.7607C16.3021 11.7642 16.2984 11.7669 16.2941 11.7688C16.2899 11.7706 16.2854 11.7715 16.2808 11.7713C16.2762 11.7712 16.2717 11.77 16.2676 11.7678Z" fill="var(--fill-0, #EC1464)"/>
<path id="Vector_17" fill-rule="evenodd" clip-rule="evenodd" d="M16.3339 11.7232C16.3339 11.7069 16.3421 11.7014 16.3579 11.7014C16.3661 11.7254 16.3495 11.7254 16.3339 11.7232Z" fill="var(--fill-0, #EC1464)"/>
<path id="Vector_18" fill-rule="evenodd" clip-rule="evenodd" d="M15.9242 5.65088C15.9105 5.64824 15.9023 5.64272 15.9023 5.62688C15.9242 5.6216 15.9215 5.6408 15.9242 5.65088Z" fill="var(--fill-0, #016794)"/>
<path id="Vector_19" fill-rule="evenodd" clip-rule="evenodd" d="M8.31697 9.83053C8.30881 9.82765 8.29513 9.82501 8.30329 9.81397C8.31145 9.80293 8.31985 9.81397 8.32513 9.82213L8.31697 9.83053Z" fill="var(--fill-0, #F58520)"/>
<path id="Vector_20" fill-rule="evenodd" clip-rule="evenodd" d="M16.3125 11.7437C16.3125 11.7303 16.3191 11.7258 16.3303 11.7258C16.3346 11.7413 16.3235 11.7413 16.3125 11.7437Z" fill="var(--fill-0, #EC1464)"/>
</g>
</svg>
