<svg width="96" height="41" viewBox="0 0 96 41" fill="none" xmlns="http://www.w3.org/2000/svg">
<mask id="mask0_39801_21215" style="mask-type:luminance" maskUnits="userSpaceOnUse" x="7" y="0" width="82" height="25">
<path d="M88.7769 0H7.22266V24.4198H88.7769V0Z" fill="white"/>
</mask>
<g mask="url(#mask0_39801_21215)">
<path d="M13.0109 24.4174H26.0876C29.2845 24.4174 31.8792 21.8229 31.8792 18.6222V5.79951C31.8792 2.59883 29.2878 0.000976562 26.0876 0.000976562H13.0109C9.81406 0.000976562 7.22266 2.5955 7.22266 5.79951V18.6222C7.22266 21.8229 9.81406 24.4174 13.0109 24.4174Z" fill="black"/>
<path d="M7.22266 12.9026C8.63978 9.59539 11.0915 3.87013 12.7414 0H15.08C16.7566 3.92009 24.0152 20.8627 24.2514 21.3956C24.9134 22.891 25.9147 23.9435 26.9126 24.4164H19.3779C20.1231 24.0334 20.8915 23.1675 20.1697 21.4189C19.6674 20.1966 12.8745 4.36638 12.625 3.79019C11.2245 7.02751 8.47012 13.5121 7.22598 16.4331V12.8993L7.22266 12.9026Z" fill="white"/>
<path d="M41.463 24.4174H54.5398C57.7366 24.4174 60.328 21.8229 60.328 18.6222V5.79951C60.328 2.59883 57.7366 0.000976562 54.5398 0.000976562H41.463C38.2662 0.000976562 35.6748 2.5955 35.6748 5.79951V18.6222C35.6748 21.8229 38.2662 24.4174 41.463 24.4174Z" fill="black"/>
<path d="M41.4169 12.4107C44.454 12.1776 49.0181 10.0926 49.0181 5.6463C49.0181 3.30824 47.8904 1.12671 45.2158 0.000976562H40.532C43.3995 0.567174 44.8466 2.8353 44.8466 5.66295C44.8466 10.066 42.4182 11.8578 38.4329 11.8578C38.0138 11.8578 36.1542 11.8578 35.6719 11.8578V12.8537C35.958 12.8537 36.1077 12.8537 36.4603 12.8537C37.7643 12.8537 38.5793 12.8936 39.3477 13.8462C40.7582 15.5914 44.4374 21.0702 47.4346 24.4207H53.7019C49.1445 22.7255 45.6117 13.8961 41.4135 12.414" fill="white"/>
<path d="M69.9132 24.419H82.99C86.1868 24.419 88.7782 21.8245 88.7782 18.6238V5.80106C88.7782 2.60038 86.1868 0.00585938 82.99 0.00585938H69.9132C66.7164 0.00585938 64.125 2.60038 64.125 5.80106V18.6238C64.125 21.8245 66.7164 24.419 69.9132 24.419Z" fill="black"/>
<path d="M84.9863 21.4232V3.03846C84.9863 2.01931 85.2225 1.2233 85.6882 0.667091C84.8832 0.240778 83.9651 0.000976562 82.9904 0.000976562H81.1708C79.4642 3.96103 73.0007 19.0052 72.6813 19.7579C72.4951 19.305 67.7214 8.0976 65.2099 2.41897C64.5246 3.37152 64.1221 4.53722 64.1221 5.79951V9.23666C66.4507 14.6355 69.6176 21.9928 70.722 24.4207H72.1391C73.7725 20.837 79.91 6.36904 81.1242 3.56469C81.2206 3.34154 81.3005 3.12172 81.3304 3.05844C81.3304 3.10174 81.3138 3.40149 81.3138 3.56802V21.4266C81.3138 22.9853 80.705 23.9645 79.6006 24.4207H82.9904C83.9717 24.4207 84.8965 24.1776 85.7049 23.7446C85.2358 23.2051 84.9863 22.4357 84.9863 21.4266" fill="white"/>
</g>
<path d="M4.23319 37.7305V30.7787H6.83512C7.39788 30.7787 7.86464 30.8747 8.2354 31.0667C8.60616 31.2587 8.88092 31.517 9.05968 31.8414C9.23843 32.1658 9.32781 32.5365 9.32781 32.9536C9.32781 33.3376 9.24174 33.6918 9.06961 34.0163C8.89747 34.3407 8.62602 34.6055 8.25526 34.8107C7.8845 35.0094 7.41112 35.1087 6.83512 35.1087H5.57388V37.7305H4.23319ZM5.57388 34.0262H6.75568C7.18602 34.0262 7.49388 33.9302 7.67926 33.7382C7.87126 33.5396 7.96726 33.2781 7.96726 32.9536C7.96726 32.6094 7.87126 32.3445 7.67926 32.1592C7.49388 31.9672 7.18602 31.8712 6.75568 31.8712H5.57388V34.0262ZM10.3334 37.7305V30.7787H12.9254C13.4882 30.7787 13.9516 30.8747 14.3158 31.0667C14.6799 31.2587 14.9513 31.517 15.1301 31.8414C15.3089 32.1592 15.3982 32.5134 15.3982 32.904C15.3982 33.2747 15.3122 33.6223 15.14 33.9467C14.9679 34.2645 14.6964 34.5227 14.3257 34.7214C13.9615 34.9134 13.4915 35.0094 12.9155 35.0094H11.6741V37.7305H10.3334ZM13.9384 37.7305L12.5083 34.6717H13.9582L15.4678 37.7305H13.9384ZM11.6741 34.0361H12.846C13.2498 34.0361 13.5478 33.9368 13.7398 33.7382C13.9318 33.5396 14.0278 33.2781 14.0278 32.9536C14.0278 32.6292 13.9318 32.3743 13.7398 32.189C13.5544 31.997 13.2564 31.901 12.846 31.901H11.6741V34.0361ZM16.5985 37.7305V30.7787H21.1668V31.8612H17.9392V33.6786H20.8688V34.7214H17.9392V36.648H21.1668V37.7305H16.5985ZM24.7817 37.8496C24.2786 37.8496 23.8284 37.7636 23.4311 37.5914C23.0405 37.4193 22.7293 37.1677 22.4976 36.8367C22.2725 36.5056 22.1566 36.1051 22.15 35.635H23.5702C23.5768 35.8403 23.6297 36.0256 23.7291 36.1912C23.8284 36.3567 23.9641 36.4891 24.1362 36.5884C24.315 36.6811 24.5268 36.7274 24.7718 36.7274C24.9837 36.7274 25.1657 36.6943 25.318 36.6281C25.4769 36.5553 25.5994 36.456 25.6855 36.3302C25.7715 36.2044 25.8146 36.0554 25.8146 35.8833C25.8146 35.6847 25.7649 35.5192 25.6656 35.3867C25.5729 35.2543 25.4405 35.1418 25.2684 35.0491C25.1028 34.9564 24.9075 34.8736 24.6824 34.8008C24.464 34.7214 24.2322 34.6386 23.9873 34.5525C23.4377 34.3738 23.0173 34.1354 22.726 33.8375C22.4413 33.5396 22.299 33.1456 22.299 32.6557C22.299 32.2386 22.3983 31.8811 22.5969 31.5832C22.8022 31.2852 23.0835 31.0568 23.4411 30.8979C23.7986 30.739 24.2057 30.6596 24.6626 30.6596C25.1326 30.6596 25.5431 30.7423 25.894 30.9078C26.2515 31.0667 26.5329 31.2985 26.7382 31.603C26.95 31.9076 27.0593 32.2651 27.0659 32.6756H25.6358C25.6292 32.5233 25.5828 32.381 25.4968 32.2485C25.4173 32.1095 25.3048 32.0003 25.1591 31.9208C25.0135 31.8347 24.8413 31.7917 24.6427 31.7917C24.4706 31.7851 24.3117 31.8116 24.166 31.8712C24.027 31.9307 23.9144 32.0201 23.8284 32.1393C23.7489 32.2518 23.7092 32.3942 23.7092 32.5663C23.7092 32.7318 23.7489 32.8709 23.8284 32.9834C23.9144 33.096 24.0303 33.1953 24.176 33.2814C24.3216 33.3608 24.4937 33.437 24.6924 33.5098C24.891 33.576 25.1062 33.6455 25.3379 33.7183C25.6822 33.8375 26 33.9798 26.2913 34.1454C26.5826 34.3043 26.8143 34.5128 26.9864 34.771C27.1586 35.0292 27.2446 35.3702 27.2446 35.7939C27.2446 36.1581 27.1486 36.4957 26.9566 36.8069C26.7646 37.1181 26.4866 37.3696 26.1224 37.5616C25.7649 37.7536 25.318 37.8496 24.7817 37.8496ZM29.9328 37.7305V31.8612H27.8969V30.7787H33.2895V31.8612H31.2635V37.7305H29.9328ZM34.2397 37.7305V30.7787H35.5804V37.7305H34.2397ZM39.9943 37.8496C39.3322 37.8496 38.7562 37.704 38.2663 37.4127C37.7764 37.1147 37.3957 36.701 37.1242 36.1713C36.8528 35.635 36.7171 35.0127 36.7171 34.3043C36.7171 33.5892 36.8561 32.9603 37.1342 32.4174C37.4122 31.8678 37.8128 31.4375 38.3358 31.1263C38.8589 30.8152 39.4845 30.6596 40.2128 30.6596C41.0271 30.6596 41.7024 30.8549 42.2387 31.2455C42.7816 31.6361 43.1325 32.179 43.2914 32.8742H41.7918C41.6925 32.5696 41.5071 32.3313 41.2357 32.1592C40.9709 31.9804 40.6266 31.891 40.2029 31.891C39.7527 31.891 39.3687 31.9903 39.0509 32.189C38.7331 32.3876 38.4914 32.6656 38.3259 33.0232C38.1604 33.3807 38.0776 33.8077 38.0776 34.3043C38.0776 34.8074 38.1604 35.2345 38.3259 35.5854C38.4914 35.9363 38.7264 36.2044 39.031 36.3898C39.3422 36.5685 39.7063 36.6579 40.1234 36.6579C40.7325 36.6579 41.1927 36.4957 41.5038 36.1713C41.8216 35.8403 42.0103 35.4132 42.0699 34.8902H40.3618V33.8872H43.4205V37.7305H42.1791L42.0798 36.8466C41.9342 37.0651 41.762 37.2505 41.5634 37.4027C41.3714 37.5484 41.1463 37.6576 40.8881 37.7305C40.6299 37.8099 40.332 37.8496 39.9943 37.8496ZM44.675 37.7305V30.7787H49.2433V31.8612H46.0157V33.6786H48.9454V34.7214H46.0157V36.648H49.2433V37.7305H44.675ZM54.2024 37.7305L52.3751 30.7787H53.8052L55.0168 36.211L56.4469 30.7787H57.9266L59.3169 36.211L60.5384 30.7787H61.9784L60.1015 37.7305H58.5026L57.1718 32.6656L55.7914 37.7305H54.2024ZM62.9078 37.7305V30.7787H67.476V31.8612H64.2485V33.6786H67.1781V34.7214H64.2485V36.648H67.476V37.7305H62.9078ZM68.2309 37.7305L70.7732 30.7787H72.2927L74.8251 37.7305H73.405L71.528 32.3081L69.6411 37.7305H68.2309ZM69.3531 36.1514L69.7106 35.1087H73.2461L73.5936 36.1514H69.3531ZM75.7386 37.7305V30.7787H77.0793V36.6877H80.1281V37.7305H75.7386ZM81.741 37.7305V31.8612H79.7051V30.7787H85.0977V31.8612H83.0717V37.7305H81.741ZM90.4274 37.7305V30.7787H91.7681V37.7305H90.4274ZM86.0479 37.7305V30.7787H87.3885V37.7305H86.0479ZM87.1999 34.7214V33.6389H90.6559V34.7214H87.1999Z" fill="black"/>
</svg>
