<svg preserveAspectRatio="none" width="100%" height="100%" overflow="visible" style="display: block;" viewBox="0 0 24 24" fill="none" xmlns="http://www.w3.org/2000/svg">
<g id="First City Monument Bank Ltd Logo" clip-path="url(#clip0_0_82)">
<path id="Vector" d="M22.9095 0.144043H1.09157C0.568536 0.144043 0.144531 0.568047 0.144531 1.09108V22.909C0.144531 23.432 0.568536 23.856 1.09157 23.856H22.9095C23.4325 23.856 23.8565 23.432 23.8565 22.909V1.09108C23.8565 0.568047 23.4325 0.144043 22.9095 0.144043Z" fill="var(--fill-0, #5C2682)"/>
<path id="Vector_2" d="M4.72555 9.70337V10.5794H6.66331V11.386H4.72555V12.9583H3.83203V8.89697H6.92419V9.70337H4.72555Z" fill="var(--fill-0, white)"/>
<path id="Vector_3" d="M10.8804 12.6043C10.7666 12.6943 10.643 12.7712 10.512 12.8335C10.3724 12.8991 10.2253 12.9475 10.074 12.9775C9.89822 13.0121 9.71938 13.0286 9.54024 13.027C9.25553 13.0296 8.97326 12.9743 8.71056 12.8645C8.46309 12.7614 8.23834 12.6106 8.04912 12.4207C7.86158 12.2302 7.71368 12.0044 7.614 11.7564C7.50869 11.4966 7.45544 11.2186 7.45728 10.9382V10.9267C7.45516 10.647 7.50843 10.3697 7.614 10.1107C7.715 9.86259 7.86271 9.63617 8.04912 9.44376C8.23877 9.24949 8.46571 9.09554 8.71632 8.99112C8.98881 8.87881 9.2813 8.82312 9.576 8.82744C9.75013 8.82613 9.92398 8.84164 10.0951 8.87376C10.2412 8.90174 10.3841 8.94452 10.5216 9.00144C10.6464 9.05413 10.7651 9.12028 10.8756 9.19872C10.983 9.27544 11.0839 9.36084 11.1773 9.45408L10.608 10.1095C10.4626 9.97587 10.2996 9.86281 10.1234 9.77352C9.95066 9.69053 9.76094 9.64887 9.56928 9.65184C9.40642 9.65033 9.24515 9.68397 9.09648 9.75048C8.9541 9.81425 8.82664 9.90712 8.72232 10.0231C8.61668 10.1411 8.53406 10.2779 8.47872 10.4263C8.41992 10.5831 8.3904 10.7492 8.3916 10.9166V10.9282C8.39058 11.0965 8.4201 11.2636 8.47872 11.4214C8.53321 11.5703 8.61455 11.7079 8.71872 11.8274C8.82498 11.9476 8.95589 12.0435 9.10254 12.1086C9.24919 12.1737 9.40814 12.2064 9.56856 12.2045C9.80072 12.2045 9.99704 12.1619 10.1575 12.0768C10.3315 11.9821 10.4924 11.8651 10.6361 11.7288L11.2046 12.3031C11.1043 12.4116 10.9959 12.5123 10.8804 12.6043Z" fill="var(--fill-0, white)"/>
<path id="Vector_4" d="M15.0972 12.9583V10.3067L13.9541 12.0415H13.9301L12.7988 10.3243V12.9583H11.918V8.89697H12.8808L13.9484 10.6144L15.0159 8.89697H15.979V12.9583H15.0972Z" fill="var(--fill-0, white)"/>
<path id="Vector_5" d="M20.2942 12.3316C20.2224 12.4713 20.1169 12.5909 19.9872 12.6796C19.8413 12.778 19.6787 12.8488 19.5072 12.8887C19.3028 12.937 19.0933 12.9604 18.8832 12.9583H16.9551V8.89697H18.8374C19.2542 8.89697 19.5813 8.99177 19.8188 9.18137C20.0562 9.37097 20.175 9.62625 20.1752 9.94721V9.95993C20.1768 10.0641 20.1622 10.1678 20.1317 10.2674C20.1047 10.3523 20.0659 10.4331 20.0165 10.5074C19.9695 10.5777 19.913 10.6412 19.8485 10.696C19.7857 10.7498 19.7171 10.7965 19.644 10.8352C19.8788 10.9243 20.0636 11.0452 20.1984 11.1979C20.3333 11.3505 20.4007 11.5619 20.4005 11.8319V11.8435C20.4046 12.0123 20.3682 12.1797 20.2942 12.3316ZM19.2932 10.0979C19.2932 9.96257 19.2429 9.85913 19.1424 9.78761C19.042 9.71609 18.8969 9.68033 18.7073 9.68033H17.8253V10.5388H18.6485C18.8458 10.5388 19.0024 10.505 19.1184 10.4373C19.2344 10.3696 19.2924 10.2603 19.2924 10.1095L19.2932 10.0979ZM19.5195 11.7225C19.5216 11.66 19.5084 11.598 19.4811 11.5418C19.4538 11.4856 19.4132 11.4369 19.3628 11.3999C19.2583 11.3207 19.0903 11.2807 18.8588 11.2799H17.8268V12.1735H18.8885C19.0858 12.1735 19.2405 12.1377 19.3527 12.0662C19.4648 11.9947 19.5208 11.8835 19.5207 11.7326L19.5195 11.7225Z" fill="var(--fill-0, white)"/>
<path id="Vector_6" d="M20.3329 15.5605V17.5492H3.74219V16.5033C3.74216 16.3795 3.76652 16.2569 3.81388 16.1425C3.86125 16.0281 3.93069 15.9241 4.01823 15.8366C4.10578 15.749 4.20972 15.6796 4.32411 15.6322C4.4385 15.5849 4.5611 15.5605 4.68491 15.5605H20.3329Z" fill="var(--fill-0, #FAB613)"/>
<path id="Vector_7" d="M3.74219 18.1931H20.3329V20.1818H4.68491C4.56108 20.1818 4.43846 20.1574 4.32405 20.11C4.20965 20.0627 4.1057 19.9932 4.01815 19.9056C3.9306 19.8181 3.86117 19.7141 3.81381 19.5997C3.76646 19.4853 3.74212 19.3626 3.74219 19.2388V18.1931Z" fill="var(--fill-0, #FAB613)"/>
</g>
<defs>
<clipPath id="clip0_0_82">
<rect width="24" height="24" fill="white"/>
</clipPath>
</defs>
</svg>
