<svg preserveAspectRatio="none" width="100%" height="100%" overflow="visible" style="display: block;" viewBox="0 0 24 24" fill="none" xmlns="http://www.w3.org/2000/svg">
<g id="ci:bulb">
<path id="Vector" d="M9 21H15M12 3C10.9178 2.99974 9.85561 3.2922 8.92604 3.84639C7.99648 4.40059 7.23411 5.19589 6.7197 6.14805C6.20528 7.10021 5.95798 8.17378 6.00398 9.25503C6.04998 10.3363 6.38758 11.385 6.981 12.29C7.935 13.742 8.411 14.468 8.474 14.576C9.024 15.541 8.923 15.201 8.992 16.31C9 16.434 9 16.623 9 17C9 17.2652 9.10536 17.5196 9.29289 17.7071C9.48043 17.8946 9.73478 18 10 18H14C14.2652 18 14.5196 17.8946 14.7071 17.7071C14.8946 17.5196 15 17.2652 15 17C15 16.623 15 16.434 15.008 16.31C15.078 15.2 14.975 15.541 15.526 14.576C15.588 14.468 16.066 13.742 17.019 12.289C17.6122 11.384 17.9495 10.3354 17.9954 9.2543C18.0413 8.1732 17.7939 7.09981 17.2795 6.14781C16.7651 5.19581 16.0029 4.40064 15.0735 3.84649C14.1441 3.29235 13.0821 2.99986 12 3Z" stroke="var(--stroke-0, #8B5A00)" stroke-width="2" stroke-linecap="round" stroke-linejoin="round"/>
</g>
</svg>
