<svg preserveAspectRatio="none" width="100%" height="100%" overflow="visible" style="display: block;" viewBox="0 0 16 16" fill="none" xmlns="http://www.w3.org/2000/svg">
<g id="calendar-03">
<path id="Vector" d="M10.6693 1.33594V4.0026M5.33594 1.33594V4.0026" stroke="var(--stroke-0, #A8005B)" stroke-linecap="round" stroke-linejoin="round"/>
<path id="Vector_2" d="M8.66667 2.66406H7.33333C4.81917 2.66406 3.5621 2.66406 2.78105 3.44511C2 4.22616 2 5.48324 2 7.9974V9.33073C2 11.8449 2 13.102 2.78105 13.883C3.5621 14.6641 4.81917 14.6641 7.33333 14.6641H8.66667C11.1808 14.6641 12.4379 14.6641 13.2189 13.883C14 13.102 14 11.8449 14 9.33073V7.9974C14 5.48324 14 4.22616 13.2189 3.44511C12.4379 2.66406 11.1808 2.66406 8.66667 2.66406Z" stroke="var(--stroke-0, #A8005B)" stroke-linecap="round" stroke-linejoin="round"/>
<path id="Vector_3" d="M2 6.66406H14" stroke="var(--stroke-0, #A8005B)" stroke-linecap="round" stroke-linejoin="round"/>
<path id="Vector_4" opacity="0.4" d="M7.9996 9.33594H8.0056M7.9996 12.0026H8.0056M10.6633 9.33594H10.6693M5.33594 9.33594H5.34192M5.33594 12.0026H5.34192" stroke="var(--stroke-0, #A8005B)" stroke-width="1.33333" stroke-linecap="round" stroke-linejoin="round"/>
</g>
</svg>
