<svg width="22" height="20" viewBox="0 0 22 20" fill="none" xmlns="http://www.w3.org/2000/svg">
<path d="M9.74 4.44C10.15 4.31 10.58 4.25 11 4.25C14.45 4.25 16.9 7.31 17.92 8.93C18.04 9.12 18.1 9.22 18.13 9.37C18.15 9.48 18.15 9.63 18.13 9.74C18.1 9.89 18.04 9.99 17.92 10.18C17.59 10.72 17.07 11.46 16.38 12.18M5.72 5.71C3.85 7.04 2.57 8.78 2.05 9.6C1.93 9.81 1.87 9.92 1.84 10.07C1.82 10.18 1.82 10.33 1.84 10.44C1.87 10.59 1.93 10.7 2.05 10.91C3.09 12.52 5.54 15.75 11 15.75C13.04 15.75 14.73 15.06 16.1 14.11M1 1L21 19M8.88 8.88C8.33 9.44 8 10.18 8 11C8 12.66 9.34 14 11 14C11.82 14 12.56 13.67 13.12 13.12" stroke="black" stroke-width="1.5" stroke-linecap="round" stroke-linejoin="round"/>
</svg>
