<svg width="20" height="20" viewBox="0 0 20 20" fill="none" xmlns="http://www.w3.org/2000/svg">
<path d="M10 12.5a2.5 2.5 0 1 0 0-5 2.5 2.5 0 0 0 0 5Z" stroke="white" stroke-width="1.5" stroke-linecap="round" stroke-linejoin="round"/>
<path d="M16.167 12.5a1.375 1.375 0 0 0 .275 1.517l.05.05a1.667 1.667 0 1 1-2.359 2.358l-.05-.05a1.375 1.375 0 0 0-1.516-.275 1.375 1.375 0 0 0-.834 1.258v.142a1.667 1.667 0 1 1-3.333 0v-.075a1.375 1.375 0 0 0-.9-1.258 1.375 1.375 0 0 0-1.517.275l-.05.05a1.667 1.667 0 1 1-2.358-2.359l.05-.05a1.375 1.375 0 0 0 .275-1.516 1.375 1.375 0 0 0-1.258-.834H2.5a1.667 1.667 0 0 1 0-3.333h.075a1.375 1.375 0 0 0 1.258-.9 1.375 1.375 0 0 0-.275-1.517l-.05-.05A1.667 1.667 0 1 1 5.867 3.55l.05.05a1.375 1.375 0 0 0 1.516.275h.067a1.375 1.375 0 0 0 .833-1.258V2.5a1.667 1.667 0 0 1 3.334 0v.075a1.375 1.375 0 0 0 .833 1.258 1.375 1.375 0 0 0 1.517-.275l.05-.05a1.667 1.667 0 1 1 2.358 2.359l-.05.05a1.375 1.375 0 0 0-.275 1.516v.067a1.375 1.375 0 0 0 1.258.833h.142a1.667 1.667 0 0 1 0 3.334h-.075a1.375 1.375 0 0 0-1.258.833Z" stroke="white" stroke-width="1.5" stroke-linecap="round" stroke-linejoin="round"/>
</svg>
