<svg preserveAspectRatio="none" width="100%" height="100%" overflow="visible" style="display: block;" viewBox="0 0 31.3174 31.3176" fill="none" xmlns="http://www.w3.org/2000/svg">
<path id="Vector" d="M26.2715 0.374625C19.2051 -0.124875 12.1123 -0.124875 5.0459 0.374625C3.83725 0.46548 2.70125 0.986764 1.8442 1.84382C0.987139 2.70088 0.465854 3.83687 0.375 5.04553C-0.125 12.1119 -0.125 19.2048 0.375 26.2711C0.465854 27.4798 0.987139 28.6158 1.8442 29.4728C2.70125 30.3299 3.83725 30.8512 5.0459 30.942C12.1122 31.4428 19.2052 31.4428 26.2715 30.942C27.4802 30.8512 28.6161 30.3299 29.4732 29.4728C30.3303 28.6158 30.8515 27.4798 30.9424 26.2711C31.4424 19.2048 31.4424 12.1119 30.9424 5.04553C30.8515 3.83687 30.3303 2.70088 29.4732 1.84382C28.6161 0.986764 27.4802 0.46548 26.2715 0.374625Z" fill="url(#paint0_linear_0_52)"/>
<defs>
<linearGradient id="paint0_linear_0_52" x1="15.6587" y1="0.000325016" x2="15.6587" y2="31.2563" gradientUnits="userSpaceOnUse">
<stop stop-color="#E8FFF2"/>
<stop offset="1" stop-color="#C8FFE9"/>
</linearGradient>
</defs>
</svg>
