<svg preserveAspectRatio="none" width="100%" height="100%" overflow="visible" style="display: block;" viewBox="0 0 31.3174 31.3176" fill="none" xmlns="http://www.w3.org/2000/svg">
<g id="Layer 2">
<path id="Vector" d="M26.2715 0.374625C19.2051 -0.124875 12.1123 -0.124875 5.0459 0.374625C3.83725 0.46548 2.70125 0.986764 1.8442 1.84382C0.987139 2.70088 0.465854 3.83687 0.375 5.04553C-0.125 12.1119 -0.125 19.2048 0.375 26.2711C0.465854 27.4798 0.987139 28.6158 1.8442 29.4728C2.70125 30.3299 3.83725 30.8512 5.0459 30.942C12.1122 31.4428 19.2052 31.4428 26.2715 30.942C27.4802 30.8512 28.6161 30.3299 29.4732 29.4728C30.3303 28.6158 30.8515 27.4798 30.9424 26.2711C31.4424 19.2048 31.4424 12.1119 30.9424 5.04553C30.8515 3.83687 30.3303 2.70088 29.4732 1.84382C28.6161 0.986764 27.4802 0.46548 26.2715 0.374625Z" fill="url(#paint0_linear_0_56)"/>
<g id="Layer 1">
<path id="Vector_2" d="M10.3525 22.3775L20.6455 12.0846L20.6455 16.7418C20.6455 17.007 20.7509 17.2614 20.9384 17.4489C21.1259 17.6364 21.3803 17.7418 21.6455 17.7418C21.9107 17.7418 22.1651 17.6364 22.3526 17.4489C22.5402 17.2614 22.6455 17.007 22.6455 16.7418L22.6455 9.67049C22.641 9.40668 22.5342 9.15493 22.3476 8.96836C22.1611 8.78179 21.9093 8.67499 21.6455 8.67049L14.5742 8.67049C14.309 8.67049 14.0546 8.77585 13.8671 8.96338C13.6796 9.15092 13.5742 9.40527 13.5742 9.67049C13.5742 9.93571 13.6796 10.1901 13.8671 10.3776C14.0546 10.5651 14.309 10.6705 14.5742 10.6705L19.2314 10.6705L8.93851 20.9635C8.75635 21.1521 8.65555 21.4047 8.65783 21.6669C8.66011 21.9291 8.76528 22.1799 8.95069 22.3653C9.1361 22.5507 9.38691 22.6559 9.64911 22.6582C9.9113 22.6604 10.1639 22.5596 10.3525 22.3775Z" fill="url(#paint1_linear_0_56)"/>
</g>
</g>
<defs>
<linearGradient id="paint0_linear_0_56" x1="-0.000300087" y1="15.6583" x2="31.3177" y2="15.6583" gradientUnits="userSpaceOnUse">
<stop stop-color="#FFEEF1"/>
<stop offset="1" stop-color="#FFC6CF"/>
</linearGradient>
<linearGradient id="paint1_linear_0_56" x1="15.6518" y1="22.7839" x2="15.6518" y2="9.79456" gradientUnits="userSpaceOnUse">
<stop stop-color="#FD4685"/>
<stop offset="1" stop-color="#FF9D8C"/>
</linearGradient>
</defs>
</svg>
